<svg width="169" height="50" viewBox="0 0 169 50" fill="none" xmlns="http://www.w3.org/2000/svg">
<g clip-path="url(#clip0_524_2731)">
<path d="M19.5293 43.2357C19.5964 42.6937 19.6619 42.1526 19.7257 41.6123L19.7357 41.6198C20.08 41.8883 20.3399 42.4452 20.1161 42.7674C19.8923 43.0896 20.0179 43.5654 19.6511 43.3194L19.5293 43.2357Z" fill="white"/>
<path d="M47.6459 12.7139C47.3973 13.6529 47.0343 14.5296 46.3282 15.2339C46.2349 15.325 46.2561 15.5536 46.261 15.7184C46.2871 16.7174 46.2411 17.7289 45.8247 18.6493C45.5611 19.2337 45.1347 19.7432 44.7978 20.2964C44.6768 20.4626 44.5994 20.6567 44.5728 20.8608C44.5529 22.0909 44.5628 23.3221 44.5616 24.5522C44.5616 27.016 43.2127 28.4233 40.7512 28.5482C40.6754 28.5482 40.5995 28.567 40.5025 28.5807C40.3186 29.5922 40.1408 30.6024 39.9506 31.6089C39.6721 33.0825 38.7807 33.9666 37.3399 34.3088C36.9793 34.3949 36.6163 34.4699 36.2036 34.5585C36.2583 34.7209 36.2993 34.862 36.3528 34.9994C36.9652 36.5811 37.5794 38.1596 38.1952 39.7347C38.4637 40.4265 38.3866 40.9073 37.9577 41.2707C37.5288 41.634 36.988 41.6253 36.3739 41.2269C35.5807 40.71 34.7801 40.2042 34.0031 39.6647C33.7184 39.4662 33.5195 39.4562 33.2299 39.6647C32.116 40.4523 30.9888 41.2228 29.8484 41.9762C29.2815 42.3508 28.6748 42.663 28.1676 42.9565C28.0992 43.8506 28.1489 44.7385 27.945 45.5627C27.6974 46.6476 27.0324 47.5901 26.0954 48.1844C25.1584 48.7786 24.0253 48.9764 22.9437 48.7345C20.6326 48.2513 19.1768 46.0909 19.4752 43.6745C19.8282 40.8323 20.1353 37.9851 20.4598 35.1392C20.4722 35.0343 20.4598 34.9257 20.4598 34.7483H17.5693C17.2621 36.2445 16.4555 37.5904 15.2831 38.5633L17.2561 39.922C17.4351 40.0469 19.8183 41.6528 19.9911 41.7864C20.3354 42.0549 20.1303 42.3995 19.9065 42.7217C19.6828 43.0439 20.4436 43.9018 20.0756 43.657C19.1992 43.0701 15.2545 40.2579 14.3979 39.6435C14.1493 39.4612 13.969 39.4512 13.7055 39.6323C12.8875 40.1955 12.0483 40.7274 11.2191 41.2657C10.6634 41.6253 10.1363 41.6253 9.71359 41.2781C9.29091 40.931 9.19145 40.4315 9.44009 39.7896C10.1089 38.0676 10.7815 36.3468 11.4677 34.5848L10.3775 34.3113C8.816 33.9229 7.87863 32.9664 7.64243 31.3355C7.5094 30.4139 7.32417 29.4998 7.17623 28.6569C6.53225 28.5158 5.91812 28.4646 5.36863 28.2448C3.91906 27.6666 3.13087 26.5552 3.09855 24.9768C3.06623 23.6031 3.09855 22.2357 3.08488 20.8658C3.08488 20.7072 3.05628 20.4912 2.96056 20.4C1.78823 19.2549 1.39289 17.8101 1.40781 16.2379C1.40781 15.6135 1.29095 15.134 0.871993 14.6482C0.267801 13.9489 0.021645 13.0673 0.0141859 12.1369C0.00424032 10.9069 0.0141859 9.67687 0.0141859 8.44558C0.0141859 7.7725 0.280231 7.263 0.913017 7.00326C1.52094 6.75351 2.05925 6.90461 2.53663 7.34917C4.18428 8.88598 5.834 10.4203 7.48579 11.9521C7.57281 12.032 7.6673 12.1045 7.77297 12.1931C7.84507 11.7024 7.86496 11.2341 7.98804 10.7958C8.56115 8.76777 9.86526 7.47779 11.924 6.99827C12.0347 6.98685 12.138 6.93714 12.2163 6.85763C12.2945 6.77813 12.3428 6.67378 12.3529 6.56245C12.8663 4.19728 14.5384 2.63882 16.9154 2.2542C19.0413 1.90954 21.1584 1.51618 23.2893 1.20899C23.8848 1.12407 24.5188 1.21773 25.1217 1.31388C27.1258 1.63232 29.1335 1.93826 31.1214 2.34411C33.3592 2.79866 34.7441 4.20602 35.2873 6.42758C35.3756 6.78972 35.5012 6.94956 35.8891 7.02699C38.0174 7.45781 39.743 9.52452 39.8424 11.7149C39.8424 11.8647 39.8561 12.0133 39.8673 12.2468C40.2402 11.9022 40.5573 11.6125 40.8718 11.3202C42.2161 10.0715 43.5591 8.82271 44.901 7.57395C46.0198 6.52873 46.9 6.64362 47.6609 7.94858L47.6459 12.7139ZM16.5735 25.3801C13.1821 26.0844 10.7678 23.5532 10.5925 21.0656C10.3874 18.1435 12.5941 15.7334 15.441 15.7346C18.1698 15.7346 21.0291 18.357 20.1055 22.0933L22.9138 20.2589C22.8218 20.0629 22.746 19.8955 22.6652 19.7319C21.2107 16.7765 19.7557 13.8211 18.3003 10.8657C17.9348 10.1227 17.9721 9.97283 18.6447 9.46333C20.0122 8.42436 21.3884 7.37914 22.7746 6.3539C22.8957 6.27556 22.993 6.16528 23.056 6.03512C23.1189 5.90496 23.145 5.75993 23.1314 5.61588C23.1103 4.79045 23.1314 3.96501 23.1227 3.13958C23.1227 2.97849 23.1028 2.81864 23.0904 2.64007C20.9769 2.99597 18.9269 3.31066 16.8893 3.69653C15.2259 4.00997 14.1767 5.0377 13.7316 6.68482C13.6259 7.07569 13.6359 7.40411 13.9802 7.68384C14.1943 7.86448 14.3881 8.06797 14.5583 8.29074C14.6731 8.42522 14.7323 8.59875 14.7236 8.77568C14.715 8.95261 14.6393 9.1195 14.512 9.2421C14.3847 9.36469 14.2155 9.43367 14.0392 9.43487C13.8628 9.43606 13.6927 9.36939 13.5638 9.24854C13.3406 9.055 13.1354 8.84141 12.9509 8.61042C12.7259 8.31821 12.4722 8.29074 12.1341 8.37066C10.1238 8.84894 8.91671 10.7034 9.25734 12.8562C9.52463 12.7676 9.78819 12.6839 10.0493 12.5915C11.8009 11.9733 13.5513 11.3502 15.3042 10.7346C15.8164 10.5548 16.208 10.7034 16.3473 11.1092C16.4865 11.5151 16.2727 11.8747 15.7605 12.057C13.7034 12.7863 11.6447 13.5118 9.5843 14.2336C9.31702 14.3273 9.19642 14.4434 9.19766 14.7556C9.21134 17.6989 9.19767 20.6435 9.21631 23.5869C9.22804 23.794 9.31366 23.99 9.45749 24.1388C10.1897 24.8581 10.9941 25.5125 11.6778 26.2617C12.3616 27.011 13.0876 27.2982 14.0797 27.2083C15.027 27.1234 15.988 27.1908 16.9502 27.1908C16.8234 26.5652 16.7028 25.992 16.5735 25.3801ZM27.5497 22.0983C27.536 21.951 27.5373 21.8886 27.5248 21.8299C26.764 18.3408 29.3983 15.3625 32.9054 15.8046C34.6459 16.0243 35.8891 17.0209 36.6474 18.6105C36.8351 19.0052 36.7058 19.396 36.3689 19.5758C36.0096 19.7656 35.623 19.6245 35.3955 19.2187C35.3346 19.1101 35.2861 18.9952 35.2252 18.8878C34.842 18.2216 34.2499 17.7018 33.5415 17.4095C32.833 17.1172 32.0481 17.069 31.3094 17.2723C30.5708 17.4757 29.92 17.9191 29.4588 18.5333C28.9977 19.1476 28.7521 19.898 28.7606 20.6673C28.7759 21.4362 29.0424 22.1787 29.5191 22.7805C29.9957 23.3823 30.6562 23.81 31.3986 23.9977C33.0011 24.3911 34.5713 23.6406 35.3532 22.1071C35.6118 21.6001 35.9972 21.4215 36.3876 21.6276C36.7779 21.8336 36.8451 22.2257 36.6014 22.724C35.94 24.0702 34.8995 24.9967 33.4387 25.3189C32.6605 25.49 31.835 25.4438 31.0443 25.5C30.9399 25.9995 30.8193 26.5802 30.6925 27.1896C32.06 27.1896 33.3902 27.1958 34.7229 27.1808C34.8869 27.1647 35.0407 27.0934 35.1593 26.9785C36.175 26.0407 37.1857 25.0966 38.1803 24.1363C38.3275 23.989 38.4159 23.7927 38.4289 23.5844C38.4451 20.6398 38.4289 17.6964 38.4475 14.7531C38.4475 14.4434 38.3357 14.321 38.0646 14.2299C36.9657 13.8552 35.8716 13.4644 34.7776 13.0773L29.2317 11.1105L24.7301 20.2502L27.5497 22.0983ZM38.4339 12.8812C38.4339 12.5315 38.4339 12.2681 38.4339 12.0071C38.4283 11.1672 38.1419 10.3535 37.6206 9.69675C37.0994 9.04 36.3735 8.57825 35.5596 8.38564C35.1867 8.29199 34.9094 8.31446 34.6633 8.6354C34.4795 8.86878 34.2711 9.08148 34.0417 9.26977C33.9802 9.33044 33.9075 9.37835 33.8276 9.41076C33.7477 9.44316 33.6623 9.45942 33.5762 9.45861C33.49 9.4578 33.4049 9.43993 33.3256 9.40602C33.2463 9.37212 33.1745 9.32285 33.1142 9.26103C33.0473 9.20106 32.9929 9.12826 32.9543 9.04689C32.9157 8.96553 32.8937 8.87724 32.8895 8.78721C32.8853 8.69718 32.8991 8.60722 32.93 8.52261C32.9609 8.438 33.0083 8.36044 33.0695 8.29448C33.2635 8.05153 33.4782 7.82591 33.711 7.62015C33.9745 7.39662 34.0156 7.13813 33.9422 6.82968C33.5556 5.19754 32.5747 4.13609 30.9424 3.73774C30.3556 3.59413 29.7551 3.51421 29.1596 3.41306C27.6367 3.15456 26.1126 2.89981 24.5499 2.63757C24.5362 2.8099 24.5176 2.94602 24.5176 3.08088C24.5176 3.95502 24.4964 4.82916 24.53 5.69705C24.55 5.93067 24.6602 6.14714 24.8371 6.30021C26.2046 7.36665 27.6007 8.41062 28.9918 9.45209C29.1546 9.56934 29.334 9.66152 29.5239 9.72557C31.3754 10.3916 33.2286 11.0488 35.0835 11.6974L38.4339 12.8812ZM1.39911 8.24578C1.39911 9.46458 1.43143 10.5672 1.3904 11.6662C1.34192 12.9624 1.82428 13.9476 2.88224 14.6907C3.68161 15.2526 4.44618 15.8658 5.21447 16.4689C5.69932 16.8498 5.69559 17.4842 5.18339 17.6752C5.04872 17.7115 4.90817 17.7204 4.77004 17.7013C4.6319 17.6822 4.49896 17.6355 4.37904 17.5641C3.84944 17.2319 3.37081 16.8148 2.79521 16.3802C2.79521 17.6627 3.16817 18.683 4.03841 19.4709C4.18673 19.5924 4.30438 19.7473 4.38173 19.9231C4.45908 20.0989 4.49394 20.2905 4.48347 20.4824C4.46731 21.961 4.46234 23.4395 4.48347 24.9181C4.50212 26.2917 5.68813 27.3319 6.88408 27.051C6.74236 26.2567 6.5969 25.4625 6.46139 24.6658C6.3925 24.3796 6.35745 24.0862 6.35697 23.7917C6.40297 23.1211 6.87413 22.7927 7.79037 22.7177C7.80114 22.6739 7.80821 22.6292 7.81151 22.5841C7.81151 19.8755 7.81896 17.167 7.80156 14.4584C7.77555 14.2519 7.67569 14.0619 7.5206 13.9239C5.61851 12.1382 3.70979 10.3604 1.79444 8.59044C1.69623 8.49678 1.58932 8.41062 1.39911 8.24578ZM44.8575 16.3777C44.2968 16.8061 43.8318 17.1657 43.3656 17.5191C42.8994 17.8725 42.4867 17.85 42.2244 17.4891C41.9621 17.1283 42.0578 16.7636 42.5091 16.4152C43.2948 15.8083 44.0755 15.1927 44.8786 14.607C45.8334 13.9114 46.2884 12.9936 46.2598 11.8085C46.2362 10.7658 46.2598 9.72058 46.2598 8.67786C46.2598 8.56422 46.2386 8.45058 46.2225 8.29074C46.1442 8.3439 46.0687 8.401 45.9962 8.46182C44.0158 10.3025 42.0317 12.1394 40.0637 13.9939C39.9264 14.1495 39.8508 14.3503 39.8511 14.5583C39.8374 16.7386 39.8424 18.9202 39.8424 21.1006V22.724C41.0185 22.7627 41.4213 23.2585 41.2385 24.4011C41.2224 24.5085 41.2012 24.6159 41.1813 24.722C41.0446 25.51 40.9078 26.2967 40.7711 27.0947C41.0767 27.125 41.3852 27.0904 41.6767 26.993C41.9681 26.8957 42.2358 26.7378 42.4625 26.5297C42.6892 26.3215 42.8697 26.0678 42.9923 25.785C43.1149 25.5021 43.1769 25.1966 43.1742 24.8881C43.1891 23.4395 43.1903 21.991 43.1742 20.5424C43.1604 20.3353 43.1959 20.1279 43.2776 19.9373C43.3593 19.7467 43.4849 19.5783 43.6441 19.446C44.492 18.668 44.8575 17.6515 44.855 16.3777H44.8575ZM21.9491 34.5985C21.9243 34.6762 21.9043 34.7555 21.8894 34.8358C21.5737 37.6205 21.2492 40.404 20.9508 43.19C20.8849 43.8044 20.7992 44.4475 20.9098 45.0444C21.1957 46.5954 22.6677 47.5919 24.2179 47.3834C24.9653 47.281 25.6439 46.8914 26.1109 46.2965C26.5779 45.7016 26.7969 44.9479 26.7217 44.194C26.4855 41.6365 26.1896 39.0841 25.9174 36.5303C25.8478 35.886 25.7732 35.2416 25.7011 34.5972L24.5225 34.8108V35.324C24.5225 37.0373 24.5225 38.7511 24.5225 40.4652C24.5304 40.6517 24.5175 40.8385 24.484 41.0222C24.4019 41.3731 24.1533 41.5416 23.8015 41.5329C23.6521 41.5387 23.5057 41.4902 23.3891 41.3964C23.2724 41.3026 23.1933 41.1698 23.1662 41.0222C23.1338 40.8384 23.1213 40.6517 23.1289 40.4652C23.1289 38.7519 23.1289 37.0382 23.1289 35.324V34.807L21.9491 34.5985ZM23.7766 27.1908C25.435 27.1908 27.0935 27.1908 28.7494 27.1821C28.906 27.1821 29.1497 27.1071 29.1994 26.9973C29.3682 26.6303 29.4933 26.2447 29.5724 25.8484C29.734 24.9867 29.1721 24.0739 28.3292 23.9465C27.6964 23.8516 27.2103 23.5519 26.7018 23.2185C25.8478 22.654 24.9838 22.1058 24.1359 21.5327C24.0496 21.4576 23.9392 21.4163 23.8251 21.4163C23.7109 21.4163 23.6006 21.4576 23.5143 21.5327C22.5869 22.157 21.6607 22.7814 20.7072 23.3596C20.3027 23.6041 19.8639 23.786 19.4055 23.8991C18.4396 24.1376 17.8503 25.0604 18.1139 26.0295C18.1748 26.2542 18.278 26.469 18.3227 26.6963C18.3986 27.0709 18.5838 27.2083 18.9891 27.1958C20.5841 27.1746 22.1803 27.1908 23.7766 27.1908ZM10.9406 39.7721C12.0321 39.0566 13.0292 38.4272 13.9989 37.7616C15.5156 36.7189 16.269 35.2528 16.2826 33.4109C16.2926 31.9486 16.2826 30.4851 16.2826 29.0228C16.2826 28.8879 16.2665 28.753 16.2578 28.6256H13.1199C13.1199 30.3577 13.1262 32.0523 13.1125 33.7456C13.1086 34.0231 13.0564 34.2978 12.9583 34.5573C12.3144 36.2581 11.6505 37.9464 10.9406 39.7721ZM36.7058 39.7721C36.395 38.9692 36.1899 38.2799 35.8729 37.6492C34.7464 35.4237 34.2771 32.921 34.5203 30.4364C34.5737 29.8394 34.5278 29.2338 34.5278 28.6231H31.3601C31.3601 30.2865 31.3402 31.9174 31.3663 33.5483C31.3912 35.2216 32.07 36.604 33.4151 37.5918C34.4407 38.3448 35.531 39.0016 36.7058 39.7721ZM18.8846 20.6186C18.8827 19.9317 18.6782 19.2609 18.2969 18.6908C17.9156 18.1206 17.3748 17.6767 16.7425 17.4152C16.1103 17.1536 15.4151 17.086 14.7447 17.221C14.0743 17.3561 13.4587 17.6876 12.9758 18.1738C12.4928 18.66 12.1641 19.279 12.0311 19.9527C11.8981 20.6264 11.9669 21.3246 12.2286 21.9591C12.4904 22.5936 12.9335 23.1359 13.5019 23.5176C14.0703 23.8994 14.7386 24.1034 15.4223 24.1039C16.3404 24.0989 17.2193 23.7299 17.8678 23.0771C18.5162 22.4244 18.8817 21.5407 18.8846 20.6186ZM27.8692 41.6103L32.285 38.6383C31.7728 37.9752 31.2432 37.4145 30.8666 36.7651C30.4899 36.1157 30.2698 35.3915 30.0025 34.7434H27.1332C27.3819 37.0248 27.6131 39.2239 27.8692 41.6103ZM11.7176 33.2099C11.7176 31.5428 11.7238 29.9431 11.7064 28.3397C11.7064 28.2036 11.5622 28.045 11.4466 27.9351C10.4106 26.9535 9.37047 25.9774 8.32618 25.0067C8.20186 24.8943 8.07755 24.7857 7.91966 24.6321C7.91303 24.7336 7.91303 24.8353 7.91966 24.9368C8.29262 27.046 8.67677 29.1539 9.03854 31.2655C9.1728 32.0523 9.60295 32.5643 10.3377 32.8165C10.7765 32.9751 11.2278 33.075 11.7176 33.2099ZM35.9176 33.1687C36.2633 33.0987 36.5392 33.0438 36.8065 32.9863C37.9813 32.7366 38.4152 32.2658 38.6228 31.0632C38.8516 29.747 39.0965 28.4346 39.3302 27.1196C39.4707 26.3229 39.605 25.525 39.7417 24.727C38.4451 25.8209 37.2354 26.9511 36.032 28.0887C35.9624 28.1676 35.9235 28.2692 35.9226 28.3746C35.9214 29.9593 35.9226 31.544 35.9226 33.1687H35.9176ZM23.0841 7.94358C23.0276 7.95152 22.9724 7.96706 22.92 7.98979C21.9044 8.75403 20.8936 9.52702 19.8705 10.2825C19.6368 10.4549 19.7201 10.606 19.8145 10.7958C20.8389 12.8704 21.8617 14.945 22.8828 17.0196C22.9431 17.1176 23.0104 17.2111 23.0841 17.2993V7.94358ZM24.5511 17.2294L24.6444 17.2881C24.6541 17.2432 24.6678 17.1994 24.6854 17.157C25.7409 15.0116 26.7926 12.865 27.8605 10.7258C27.9848 10.4686 27.8729 10.3674 27.6989 10.2363C26.7441 9.51952 25.7931 8.79774 24.8395 8.0797C24.7479 8.02215 24.6519 7.97203 24.5524 7.92984L24.5511 17.2294ZM17.685 28.6119C17.685 30.018 17.685 31.3704 17.685 32.7241C17.685 33.1474 17.9336 33.3485 18.3351 33.3485C18.9406 33.3585 19.5448 33.3597 20.149 33.3485C20.6462 33.3397 20.8402 33.1299 20.8452 32.6229C20.8514 31.9986 20.8452 31.3742 20.8452 30.7498V28.6119H17.685ZM22.2462 28.6119C22.2462 30.0255 22.2462 31.3929 22.2462 32.7616C22.2462 33.1362 22.4849 33.336 22.8417 33.346C23.4919 33.3622 24.1434 33.3647 24.7935 33.346C25.2001 33.3335 25.4064 33.0962 25.4052 32.6791C25.4052 31.9299 25.4052 31.1806 25.4052 30.4314V28.6132L22.2462 28.6119ZM26.805 28.6119C26.805 30.013 26.805 31.3654 26.805 32.7179C26.805 33.1125 27.0251 33.336 27.4067 33.3422C28.0565 33.3606 28.7071 33.3606 29.3586 33.3422C29.7663 33.3298 29.969 33.0862 29.9677 32.6717C29.9677 31.8308 29.9677 30.9904 29.9677 30.1504V28.6119H26.805Z" fill="white"/>
<path d="M29.9688 20.6089C29.972 20.1602 30.1076 19.7226 30.3585 19.3514C30.6094 18.9802 30.9643 18.6921 31.3782 18.5235C31.7922 18.355 32.2466 18.3136 32.684 18.4045C33.1214 18.4955 33.5221 18.7147 33.8354 19.0345C34.1487 19.3543 34.3606 19.7602 34.4441 20.201C34.5277 20.6417 34.4792 21.0975 34.3048 21.5106C34.1304 21.9236 33.838 22.2754 33.4644 22.5215C33.0909 22.7676 32.6532 22.8968 32.2065 22.8929C31.6097 22.8833 31.0406 22.6385 30.6219 22.2112C30.2033 21.7839 29.9687 21.2084 29.9688 20.6089ZM33.0767 20.6326C33.0824 20.517 33.0647 20.4014 33.0249 20.2928C32.9851 20.1842 32.9239 20.0847 32.845 20.0004C32.7661 19.9161 32.671 19.8486 32.5656 19.8019C32.4601 19.7553 32.3464 19.7305 32.2312 19.729C32.1159 19.7275 32.0016 19.7493 31.895 19.7931C31.7883 19.837 31.6916 19.902 31.6105 19.9842C31.5294 20.0665 31.4656 20.1643 31.423 20.2718C31.3804 20.3793 31.3598 20.4944 31.3624 20.6101C31.3568 20.7257 31.3744 20.8413 31.4142 20.9499C31.454 21.0585 31.5152 21.158 31.5941 21.2423C31.673 21.3266 31.7681 21.3941 31.8735 21.4408C31.979 21.4874 32.0927 21.5122 32.208 21.5137C32.3232 21.5152 32.4375 21.4934 32.5442 21.4496C32.6508 21.4057 32.7476 21.3407 32.8286 21.2585C32.9097 21.1762 32.9735 21.0784 33.0161 20.9709C33.0587 20.8634 33.0794 20.7483 33.0767 20.6326Z" fill="white"/>
<path d="M22.2363 25.2353C22.2335 25.3267 22.2127 25.4166 22.1753 25.4999C22.1379 25.5831 22.0845 25.6582 22.0181 25.7208C21.9518 25.7833 21.8739 25.8322 21.7888 25.8645C21.7037 25.8968 21.613 25.9119 21.5221 25.909C21.4312 25.9062 21.3417 25.8853 21.2588 25.8477C21.1759 25.8101 21.1011 25.7565 21.0388 25.6899C20.9766 25.6232 20.928 25.545 20.8958 25.4595C20.8636 25.374 20.8486 25.283 20.8514 25.1916C20.8572 25.0072 20.9357 24.8325 21.0696 24.7062C21.2036 24.5798 21.382 24.5121 21.5656 24.5179C21.7493 24.5237 21.9231 24.6026 22.0489 24.7371C22.1747 24.8716 22.2421 25.0509 22.2363 25.2353Z" fill="white"/>
<path d="M26.0875 24.5146C26.2663 24.515 26.4384 24.5829 26.5697 24.7048C26.701 24.8267 26.7818 24.9937 26.7962 25.1727C26.8067 25.3571 26.7439 25.538 26.6217 25.6758C26.4994 25.8137 26.3276 25.897 26.1441 25.9076C25.9606 25.9182 25.7805 25.8552 25.6433 25.7324C25.506 25.6095 25.423 25.437 25.4125 25.2527C25.4064 25.0654 25.4737 24.8831 25.5999 24.7451C25.7261 24.6071 25.9012 24.5244 26.0875 24.5146Z" fill="white"/>
<path d="M17.6862 20.6164C17.6862 21.0652 17.5536 21.504 17.3052 21.8771C17.0568 22.2502 16.7037 22.5408 16.2908 22.7123C15.8778 22.8837 15.4235 22.9281 14.9853 22.84C14.5472 22.7519 14.1449 22.5352 13.8295 22.2173C13.5141 21.8994 13.2996 21.4946 13.2134 21.0542C13.1271 20.6138 13.1729 20.1576 13.3449 19.7434C13.5169 19.3291 13.8074 18.9755 14.1797 18.7272C14.5519 18.4789 14.9892 18.3472 15.436 18.3486C16.032 18.3555 16.6015 18.5968 17.0222 19.0209C17.4429 19.4449 17.6813 20.0178 17.6862 20.6164ZM16.2876 20.6014C16.2826 20.4316 16.2278 20.2671 16.1299 20.1285C16.032 19.99 15.8954 19.8837 15.7375 19.823C15.5795 19.7623 15.4072 19.7499 15.2423 19.7874C15.0773 19.8249 14.9271 19.9107 14.8106 20.0338C14.6941 20.1569 14.6164 20.3119 14.5875 20.4793C14.5585 20.6467 14.5795 20.8189 14.6479 20.9743C14.7162 21.1297 14.8288 21.2613 14.9715 21.3525C15.1142 21.4437 15.2806 21.4904 15.4497 21.4868C15.675 21.4749 15.8872 21.3763 16.0421 21.2114C16.1969 21.0466 16.2826 20.8281 16.2814 20.6014H16.2876Z" fill="white"/>
<path d="M33.0803 20.633C33.0778 20.8035 33.025 20.9694 32.9287 21.1097C32.8323 21.25 32.6967 21.3585 32.539 21.4213C32.3812 21.4842 32.2085 21.4987 32.0425 21.4629C31.8766 21.4271 31.725 21.3427 31.6068 21.2204C31.4887 21.098 31.4093 20.9432 31.3788 20.7755C31.3482 20.6078 31.3679 20.4348 31.4352 20.2784C31.5026 20.1219 31.6147 19.9891 31.7572 19.8966C31.8998 19.8041 32.0665 19.7562 32.2361 19.7589C32.4624 19.7657 32.6771 19.8608 32.8347 20.024C32.9923 20.1872 33.0804 20.4057 33.0803 20.633Z" fill="white"/>
<path d="M16.281 20.6015C16.2819 20.8291 16.1952 21.0482 16.0391 21.2132C15.883 21.3782 15.6695 21.4762 15.4431 21.4868C15.2723 21.4917 15.1039 21.4456 14.9592 21.3542C14.8145 21.2629 14.7001 21.1304 14.6305 20.9737C14.5609 20.8169 14.5392 20.6429 14.5681 20.4737C14.5971 20.3046 14.6754 20.1478 14.7931 20.0234C14.9109 19.899 15.0627 19.8126 15.2295 19.775C15.3962 19.7374 15.5703 19.7503 15.7297 19.8123C15.889 19.8742 16.0265 19.9822 16.1247 20.1227C16.2228 20.2632 16.2772 20.4299 16.281 20.6015Z" fill="white"/>
</g>
<path d="M82.0844 18.8842C82.0844 22.5219 79.9348 24.1754 77.4959 25.0022V25.0849C80.5962 25.6223 83.2419 27.9785 83.2419 32.4017C83.2419 37.8583 79.3561 41 73.2381 41H60.506V11.4433H72.4113C78.4467 11.4433 82.0844 14.2956 82.0844 18.8842ZM64.2264 23.8034H72.9901C77.2065 23.8034 78.364 21.9845 78.364 19.2975C78.364 16.6106 76.7931 14.7504 73.4034 14.7504H64.2264V23.8034ZM64.2264 27.1104V37.693H73.6101C78.364 37.693 79.5215 35.1713 79.5215 32.4017C79.5215 29.2187 77.5372 27.1104 74.4369 27.1104H64.2264ZM96.9477 19.3389C100.792 19.3389 104.016 21.4471 104.016 26.2837V41H100.709V27.1104C100.709 24.3821 99.428 22.2325 96.1209 22.2325C92.4005 22.2325 89.9202 24.5888 89.9202 27.8545V41H86.6132V11.4433H89.9202V22.4392H90.0029C91.119 20.9511 93.3513 19.3389 96.9477 19.3389ZM121.35 25.2916C121.35 23.638 120.441 22.2325 117.051 22.2325C113.041 22.2325 111.719 23.39 111.512 26.449H108.205C108.412 22.3979 110.933 19.3389 117.051 19.3389C121.061 19.3389 124.657 20.9097 124.657 25.9943V36.2461C124.657 37.8996 124.947 38.8091 127.055 38.5611V40.876C126.187 41.1654 125.732 41.2067 125.112 41.2067C123.128 41.2067 121.929 40.6693 121.35 38.3544H121.268C119.945 40.3386 117.589 41.5787 114.116 41.5787C109.858 41.5787 107.171 39.1398 107.171 35.5847C107.171 30.7895 110.726 29.5494 116.183 28.5159C119.738 27.8545 121.35 27.3998 121.35 25.2916ZM114.447 38.6851C118.374 38.6851 121.35 36.9075 121.35 32.8564V29.3427C120.73 29.9628 118.705 30.5415 116.472 30.9962C112.38 31.8643 110.478 32.8978 110.478 35.4194C110.478 37.4863 111.719 38.6851 114.447 38.6851ZM129.526 11.4433H132.833V28.9706L142.506 19.9176H146.64L138.413 27.7305L147.508 41H143.581L136.098 29.6734L132.833 32.6911V41H129.526V11.4433ZM158.524 22.8113H154.39V35.502C154.39 37.8996 155.713 38.313 158.524 38.1063V41C157.78 41.1654 156.912 41.248 156.044 41.248C153.233 41.248 151.083 40.1319 151.083 35.8327V22.8113H147.983V19.9176H151.083V12.8902H154.39V19.9176H158.524V22.8113ZM164.049 15.8252C163.14 15.8252 161.982 15.1224 161.982 13.8409C161.982 12.5595 163.14 11.8567 164.049 11.8567C165 11.8567 166.116 12.5595 166.116 13.8409C166.116 15.1224 165 15.8252 164.049 15.8252ZM162.396 19.9176H165.703V41H162.396V19.9176Z" fill="white"/>
<defs>
<clipPath id="clip0_524_2731">
<rect width="47.6467" height="47.6467" fill="white" transform="translate(0 1.17676)"/>
</clipPath>
</defs>
</svg>
