<svg width="92" height="27" viewBox="0 0 92 27" fill="none" xmlns="http://www.w3.org/2000/svg">
<g clip-path="url(#clip0_642_2595)">
<path d="M11.019 23.347C11.0553 23.0544 11.0906 22.7622 11.1251 22.4704L11.1305 22.4744C11.3164 22.6194 11.4567 22.9202 11.3359 23.0942C11.2151 23.2681 11.2829 23.5251 11.0848 23.3922L11.019 23.347Z" fill="black"/>
<path d="M26.2021 6.86558C26.0678 7.37268 25.8718 7.84606 25.4905 8.22638C25.4401 8.27561 25.4515 8.39901 25.4542 8.48802C25.4683 9.02749 25.4435 9.5737 25.2186 10.0707C25.0762 10.3863 24.846 10.6614 24.664 10.9601C24.5987 11.0499 24.5569 11.1547 24.5425 11.2649C24.5318 11.9291 24.5372 12.594 24.5365 13.2583C24.5365 14.5887 23.8081 15.3487 22.4789 15.4161C22.4379 15.4161 22.397 15.4262 22.3446 15.4337C22.2453 15.9799 22.1493 16.5254 22.0465 17.0689C21.8962 17.8646 21.4148 18.3421 20.6368 18.5268C20.4421 18.5734 20.2461 18.6138 20.0232 18.6617C20.0527 18.7494 20.0749 18.8256 20.1037 18.8997C20.4345 19.7539 20.7661 20.6063 21.0986 21.4568C21.2436 21.8304 21.202 22.09 20.9704 22.2862C20.7388 22.4825 20.4468 22.4778 20.1151 22.2626C19.6868 21.9835 19.2545 21.7104 18.8349 21.419C18.6812 21.3118 18.5738 21.3064 18.4174 21.419C17.8159 21.8443 17.2072 22.2604 16.5914 22.6672C16.2852 22.8695 15.9576 23.0381 15.6837 23.1966C15.6468 23.6794 15.6737 24.1589 15.5636 24.6039C15.4298 25.1898 15.0708 25.6987 14.5648 26.0196C14.0588 26.3405 13.4469 26.4474 12.8628 26.3167C11.6148 26.0558 10.8287 24.8892 10.9898 23.5843C11.1805 22.0495 11.3463 20.5121 11.5215 18.9753C11.5282 18.9186 11.5215 18.8599 11.5215 18.7642H9.96069C9.79478 19.5721 9.35923 20.2989 8.72612 20.8243L9.79151 21.558C9.88818 21.6254 11.1751 22.4926 11.2684 22.5647C11.4544 22.7097 11.3436 22.8958 11.2228 23.0698C11.1019 23.2438 11.5128 23.7071 11.3141 23.5749C10.8408 23.258 8.71068 21.7394 8.24813 21.4076C8.11387 21.3091 8.01653 21.3037 7.87421 21.4015C7.43247 21.7056 6.97933 21.9929 6.53156 22.2835C6.23147 22.4778 5.94683 22.4778 5.71858 22.2903C5.49033 22.1028 5.43662 21.8331 5.57089 21.4865C5.93206 20.5566 6.29525 19.6273 6.66582 18.6759L6.07707 18.5282C5.23388 18.3185 4.7277 17.8019 4.60015 16.9212C4.52832 16.4236 4.42829 15.93 4.34841 15.4748C4.00066 15.3986 3.66903 15.3709 3.3723 15.2523C2.58954 14.94 2.16391 14.3399 2.14646 13.4875C2.12901 12.7458 2.14646 12.0074 2.13908 11.2676C2.13908 11.182 2.12364 11.0653 2.07194 11.0161C1.43888 10.3977 1.2254 9.61753 1.23346 8.76855C1.23346 8.43138 1.17036 8.17243 0.944119 7.91012C0.617854 7.53249 0.484931 7.05641 0.480903 6.55403C0.475532 5.88982 0.480903 5.2256 0.480903 4.5607C0.480903 4.19724 0.624567 3.92211 0.966271 3.78185C1.29455 3.64698 1.58523 3.72858 1.84302 3.96864C2.73275 4.79852 3.6236 5.62705 4.51557 6.45423C4.56256 6.49739 4.61358 6.5365 4.67064 6.58438C4.70958 6.31937 4.72032 6.06649 4.78678 5.8298C5.09626 4.73468 5.80048 4.0381 6.9122 3.77915C6.97198 3.77299 7.02777 3.74614 7.07003 3.70321C7.11228 3.66028 7.13836 3.60393 7.1438 3.54381C7.42106 2.26662 8.32399 1.42505 9.60757 1.21736C10.7555 1.03124 11.8988 0.818826 13.0495 0.65294C13.371 0.607085 13.7134 0.65766 14.039 0.709584C15.1212 0.881539 16.2054 1.04675 17.2788 1.26591C18.4872 1.51137 19.235 2.27134 19.5284 3.47098C19.5761 3.66654 19.6439 3.75285 19.8533 3.79466C21.0026 4.02731 21.9344 5.14333 21.9881 6.32611C21.9881 6.40703 21.9955 6.48727 22.0016 6.61337C22.203 6.42726 22.3742 6.27081 22.544 6.11302C23.2699 5.43869 23.9952 4.76435 24.7198 4.09002C25.324 3.5256 25.7993 3.58764 26.2101 4.29232L26.2021 6.86558ZM9.42295 13.7053C7.59158 14.0857 6.28787 12.7188 6.19321 11.3755C6.08244 9.79758 7.27404 8.49612 8.81138 8.49679C10.2849 8.49679 11.829 9.91289 11.3302 11.9305L12.8467 10.9399C12.797 10.834 12.7561 10.7437 12.7124 10.6553C11.927 9.05941 11.1413 7.46349 10.3554 5.86756C10.1581 5.46633 10.1782 5.38541 10.5414 5.11029C11.2798 4.54924 12.023 3.98482 12.7715 3.43119C12.8369 3.38889 12.8895 3.32934 12.9235 3.25905C12.9574 3.18877 12.9715 3.11045 12.9642 3.03266C12.9528 2.58693 12.9642 2.14119 12.9595 1.69546C12.9595 1.60847 12.9488 1.52216 12.942 1.42573C11.8008 1.61791 10.6938 1.78784 9.59347 1.99621C8.69524 2.16547 8.12864 2.72045 7.88831 3.60989C7.83124 3.82096 7.83661 3.99831 8.02257 4.14936C8.13815 4.24691 8.24282 4.35679 8.33473 4.47709C8.39671 4.54971 8.42866 4.64341 8.42401 4.73895C8.41935 4.8345 8.37846 4.92462 8.30972 4.99082C8.24098 5.05702 8.14961 5.09427 8.05439 5.09492C7.95916 5.09556 7.8673 5.05956 7.79767 4.9943C7.67715 4.88979 7.56637 4.77445 7.46671 4.64972C7.3452 4.49192 7.20825 4.47709 7.02565 4.52024C5.94012 4.77851 5.28826 5.7799 5.47221 6.94245C5.61654 6.89457 5.75886 6.84939 5.89984 6.79949C6.84574 6.4657 7.79096 6.1292 8.73753 5.79676C9.01412 5.69965 9.22558 5.7799 9.30077 5.99906C9.37596 6.21822 9.26049 6.41242 8.98391 6.51088C7.87309 6.90469 6.76138 7.29647 5.64877 7.68624C5.50443 7.73681 5.43931 7.79953 5.43998 7.96811C5.44737 9.55752 5.43998 11.1476 5.45005 12.737C5.45638 12.8488 5.50262 12.9547 5.58029 13.0351C5.9757 13.4235 6.41005 13.7768 6.77927 14.1814C7.1485 14.586 7.54056 14.7411 8.07628 14.6926C8.58783 14.6467 9.10676 14.6831 9.62637 14.6831C9.55789 14.3453 9.49277 14.0358 9.42295 13.7053ZM15.3501 11.9332C15.3427 11.8536 15.3434 11.8199 15.3367 11.7882C14.9258 9.90412 16.3483 8.29584 18.2422 8.53455C19.182 8.65324 19.8533 9.19135 20.2628 10.0498C20.3642 10.2629 20.2944 10.4739 20.1125 10.571C19.9184 10.6735 19.7097 10.5973 19.5868 10.3782C19.5539 10.3195 19.5277 10.2575 19.4948 10.1995C19.2879 9.83977 18.9682 9.55906 18.5856 9.40123C18.2031 9.2434 17.7792 9.21734 17.3803 9.32714C16.9815 9.43694 16.63 9.6764 16.381 10.0081C16.132 10.3398 15.9994 10.745 16.004 11.1604C16.0122 11.5756 16.1561 11.9766 16.4135 12.3016C16.6709 12.6265 17.0276 12.8575 17.4285 12.9589C18.2938 13.1713 19.1417 12.766 19.564 11.9379C19.7036 11.6641 19.9117 11.5677 20.1225 11.679C20.3333 11.7902 20.3696 12.002 20.238 12.271C19.8809 12.998 19.319 13.4983 18.5301 13.6723C18.1099 13.7647 17.6641 13.7397 17.2372 13.7701C17.1808 14.0398 17.1157 14.3534 17.0472 14.6825C17.7857 14.6825 18.504 14.6858 19.2236 14.6777C19.3122 14.669 19.3952 14.6305 19.4593 14.5685C20.0077 14.0621 20.5535 13.5523 21.0906 13.0337C21.1701 12.9542 21.2179 12.8481 21.2248 12.7357C21.2336 11.1456 21.2248 9.55617 21.2349 7.96676C21.2349 7.79953 21.1745 7.73344 21.0282 7.68422C20.4347 7.48192 19.8439 7.27085 19.2532 7.06181L16.2584 5.99973L13.8275 10.9352L15.3501 11.9332ZM21.2275 6.95594C21.2275 6.76712 21.2275 6.62484 21.2275 6.4839C21.2245 6.03035 21.0698 5.59098 20.7884 5.23633C20.5069 4.88169 20.1149 4.63234 19.6754 4.52834C19.474 4.47776 19.3243 4.4899 19.1914 4.6632C19.0922 4.78923 18.9796 4.90409 18.8557 5.00576C18.8226 5.03853 18.7833 5.0644 18.7402 5.0819C18.697 5.09939 18.6509 5.10817 18.6044 5.10774C18.5578 5.1073 18.5119 5.09765 18.4691 5.07934C18.4263 5.06103 18.3875 5.03443 18.3549 5.00104C18.3188 4.96866 18.2894 4.92935 18.2686 4.88541C18.2477 4.84147 18.2358 4.7938 18.2336 4.74518C18.2313 4.69657 18.2388 4.64799 18.2554 4.6023C18.2721 4.55661 18.2977 4.51472 18.3308 4.47911C18.4356 4.34792 18.5515 4.22608 18.6772 4.11497C18.8195 3.99426 18.8416 3.85468 18.802 3.68812C18.5933 2.80676 18.0636 2.23358 17.1821 2.01847C16.8653 1.94092 16.541 1.89776 16.2194 1.84314C15.3971 1.70355 14.574 1.56599 13.7302 1.42438C13.7228 1.51744 13.7127 1.59094 13.7127 1.66377C13.7127 2.1358 13.7013 2.60783 13.7194 3.0765C13.7302 3.20265 13.7898 3.31954 13.8853 3.4022C14.6237 3.97808 15.3776 4.54182 16.1288 5.10422C16.2167 5.16753 16.3136 5.21731 16.4161 5.2519C17.416 5.61154 18.4167 5.96646 19.4183 6.31667L21.2275 6.95594ZM1.22876 4.45281C1.22876 5.11096 1.24621 5.7064 1.22406 6.29981C1.19788 6.99977 1.45835 7.53182 2.02965 7.93305C2.46131 8.2365 2.87418 8.5676 3.28906 8.8933C3.55087 9.09897 3.54886 9.44153 3.27227 9.5447C3.19955 9.5643 3.12365 9.56908 3.04906 9.55878C2.97447 9.54847 2.90268 9.52328 2.83792 9.48469C2.55194 9.30532 2.29348 9.08009 1.98266 8.84542C1.98266 9.53796 2.18405 10.0889 2.65398 10.5144C2.73408 10.58 2.79761 10.6636 2.83937 10.7585C2.88114 10.8535 2.89997 10.957 2.89432 11.0606C2.88559 11.859 2.8829 12.6574 2.89432 13.4558C2.90439 14.1976 3.54483 14.7593 4.19065 14.6076C4.11411 14.1787 4.03557 13.7498 3.96239 13.3196C3.92519 13.1651 3.90627 13.0066 3.906 12.8476C3.93084 12.4855 4.18527 12.3081 4.68004 12.2677C4.68586 12.244 4.68968 12.2198 4.69146 12.1955C4.69146 10.7329 4.69548 9.27025 4.68608 7.80762C4.67204 7.69611 4.61812 7.59354 4.53436 7.51901C3.50724 6.55471 2.47653 5.59468 1.44224 4.63893C1.38921 4.58835 1.33147 4.54182 1.22876 4.45281ZM24.6963 8.84407C24.3935 9.07537 24.1424 9.26958 23.8907 9.46041C23.6389 9.65125 23.4161 9.63911 23.2744 9.44423C23.1328 9.24935 23.1844 9.05244 23.4281 8.8643C23.8524 8.53657 24.274 8.20413 24.7077 7.88787C25.2233 7.51226 25.469 7.01663 25.4535 6.37668C25.4408 5.81362 25.4535 5.2492 25.4535 4.68613C25.4535 4.62477 25.4421 4.5634 25.4334 4.47709C25.3911 4.50579 25.3504 4.53663 25.3112 4.56947C24.2418 5.56344 23.1703 6.55538 22.1076 7.55677C22.0335 7.64082 21.9927 7.74928 21.9928 7.86157C21.9855 9.03895 21.9881 10.217 21.9881 11.3944V12.271C22.6232 12.2919 22.8407 12.5597 22.742 13.1767C22.7333 13.2347 22.7219 13.2927 22.7112 13.35C22.6373 13.7755 22.5635 14.2003 22.4896 14.6312C22.6547 14.6476 22.8213 14.6289 22.9786 14.5763C23.136 14.5238 23.2806 14.4385 23.403 14.3261C23.5254 14.2137 23.6229 14.0767 23.6891 13.924C23.7553 13.7712 23.7888 13.6062 23.7873 13.4397C23.7954 12.6574 23.796 11.8752 23.7873 11.093C23.7799 10.9812 23.799 10.8692 23.8431 10.7662C23.8873 10.6633 23.9551 10.5723 24.0411 10.5009C24.4989 10.0808 24.6963 9.53189 24.6949 8.84407H24.6963ZM12.3258 18.6833C12.3124 18.7253 12.3016 18.7681 12.2935 18.8114C12.123 20.3152 11.9478 21.8183 11.7867 23.3227C11.7511 23.6545 11.7048 24.0017 11.7645 24.3241C11.9189 25.1616 12.7138 25.6997 13.5509 25.5871C13.9545 25.5318 14.3209 25.3214 14.5731 25.0002C14.8253 24.6789 14.9436 24.2719 14.903 23.8649C14.7754 22.4838 14.6157 21.1055 14.4686 19.7265C14.431 19.3785 14.3908 19.0306 14.3518 18.6826L13.7154 18.7979V19.0751C13.7154 20.0002 13.7154 20.9257 13.7154 21.8513C13.7197 21.952 13.7127 22.0529 13.6946 22.152C13.6503 22.3415 13.516 22.4326 13.326 22.4279C13.2454 22.431 13.1663 22.4048 13.1033 22.3542C13.0403 22.3035 12.9976 22.2318 12.983 22.152C12.9655 22.0528 12.9587 21.952 12.9628 21.8513C12.9628 20.9261 12.9628 20.0007 12.9628 19.0751V18.7959L12.3258 18.6833ZM13.3126 14.6831C14.2082 14.6831 15.1037 14.6831 15.9979 14.6784C16.0825 14.6784 16.2141 14.6379 16.2409 14.5786C16.3321 14.3805 16.3996 14.1722 16.4423 13.9582C16.5296 13.4929 16.2262 13 15.771 12.9312C15.4293 12.88 15.1668 12.7181 14.8922 12.5381C14.431 12.2333 13.9645 11.9372 13.5066 11.6277C13.46 11.5872 13.4004 11.5649 13.3388 11.5649C13.2772 11.5649 13.2176 11.5872 13.171 11.6277C12.6702 11.9649 12.17 12.3021 11.6551 12.6143C11.4367 12.7463 11.1998 12.8445 10.9522 12.9056C10.4306 13.0344 10.1124 13.5327 10.2547 14.056C10.2876 14.1774 10.3433 14.2934 10.3675 14.4161C10.4085 14.6184 10.5085 14.6926 10.7273 14.6858C11.5886 14.6744 12.4506 14.6831 13.3126 14.6831ZM6.38118 21.477C6.9706 21.0906 7.509 20.7508 8.03264 20.3914C8.85165 19.8283 9.25848 19.0366 9.26586 18.042C9.27123 17.2523 9.26586 16.462 9.26586 15.6724C9.26586 15.5995 9.25714 15.5267 9.25244 15.4579H7.55801C7.55801 16.3932 7.56137 17.3083 7.55398 18.2227C7.55186 18.3726 7.52369 18.5209 7.47074 18.661C7.12299 19.5795 6.76451 20.4912 6.38118 21.477ZM20.2944 21.477C20.1266 21.0434 20.0158 20.6712 19.8446 20.3307C19.2363 19.1289 18.9829 17.7774 19.1142 16.4357C19.1431 16.1134 19.1182 15.7863 19.1182 15.4566H17.4077C17.4077 16.3548 17.397 17.2355 17.4111 18.1162C17.4245 19.0198 17.791 19.7663 18.5174 20.2997C19.0712 20.7063 19.66 21.061 20.2944 21.477ZM10.6709 11.1341C10.6699 10.7632 10.5594 10.401 10.3536 10.0931C10.1477 9.78522 9.85561 9.54552 9.51421 9.40427C9.17281 9.26302 8.7974 9.22654 8.43538 9.29945C8.07335 9.37236 7.74095 9.55139 7.48015 9.81393C7.21935 10.0765 7.04184 10.4107 6.97003 10.7745C6.89823 11.1383 6.93534 11.5154 7.0767 11.858C7.21806 12.2006 7.45732 12.4935 7.76426 12.6996C8.07121 12.9057 8.43208 13.0159 8.80131 13.0162C9.29704 13.0135 9.77166 12.8142 10.1218 12.4617C10.472 12.1092 10.6694 11.6321 10.6709 11.1341ZM15.5226 22.4697L17.9072 20.8647C17.6306 20.5067 17.3446 20.2039 17.1412 19.8532C16.9378 19.5026 16.8189 19.1115 16.6746 18.7615H15.1252C15.2595 19.9935 15.3843 21.181 15.5226 22.4697ZM6.80076 17.9334C6.80076 17.0332 6.80411 16.1694 6.79471 15.3035C6.79471 15.23 6.71684 15.1444 6.65441 15.085C6.09497 14.555 5.53329 14.0279 4.96938 13.5037C4.90225 13.443 4.83512 13.3844 4.74986 13.3014C4.74628 13.3562 4.74628 13.4112 4.74986 13.466C4.95126 14.6049 5.1587 15.7432 5.35405 16.8835C5.42656 17.3083 5.65884 17.5848 6.05559 17.721C6.29257 17.8066 6.53626 17.8606 6.80076 17.9334ZM19.8688 17.9112C20.0554 17.8734 20.2044 17.8437 20.3488 17.8127C20.9832 17.6778 21.2175 17.4236 21.3296 16.7742C21.4531 16.0635 21.5853 15.3548 21.7116 14.6447C21.7874 14.2145 21.8599 13.7836 21.9338 13.3527C21.2336 13.9434 20.5804 14.5537 19.9305 15.168C19.8929 15.2106 19.872 15.2654 19.8715 15.3224C19.8708 16.1781 19.8715 17.0339 19.8715 17.9112H19.8688ZM12.9387 4.28962C12.9082 4.29391 12.8784 4.3023 12.8501 4.31457C12.3016 4.72726 11.7558 5.14468 11.2033 5.55265C11.0771 5.64571 11.1221 5.7273 11.1731 5.8298C11.7263 6.95009 12.2785 8.07038 12.8299 9.19068C12.8625 9.24357 12.8989 9.29406 12.9387 9.34173V4.28962ZM13.7308 9.30397L13.7812 9.33566C13.7864 9.31144 13.7939 9.28774 13.8033 9.26486C14.3733 8.10635 14.9412 6.94717 15.5179 5.79204C15.585 5.65312 15.5246 5.5985 15.4306 5.5277C14.9151 5.14063 14.4015 4.75087 13.8866 4.36312C13.8371 4.33205 13.7853 4.30499 13.7315 4.2822L13.7308 9.30397ZM10.0231 15.4505C10.0231 16.2098 10.0231 16.9401 10.0231 17.6711C10.0231 17.8997 10.1574 18.0083 10.3742 18.0083C10.7012 18.0137 11.0274 18.0143 11.3537 18.0083C11.6222 18.0035 11.7269 17.8903 11.7296 17.6165C11.733 17.2793 11.7296 16.9421 11.7296 16.605V15.4505H10.0231ZM12.4862 15.4505C12.4862 16.2139 12.4862 16.9523 12.4862 17.6913C12.4862 17.8936 12.6151 18.0015 12.8078 18.0069C13.1589 18.0157 13.5107 18.017 13.8618 18.0069C14.0813 18.0002 14.1927 17.8721 14.192 17.6468C14.192 17.2422 14.192 16.8376 14.192 16.433V15.4512L12.4862 15.4505ZM14.948 15.4505C14.948 16.2071 14.948 16.9374 14.948 17.6677C14.948 17.8808 15.0668 18.0015 15.2729 18.0049C15.6238 18.0148 15.9751 18.0148 16.3269 18.0049C16.5471 17.9982 16.6565 17.8667 16.6558 17.6428C16.6558 17.1887 16.6558 16.7349 16.6558 16.2813V15.4505H14.948Z" fill="black"/>
<path d="M16.6563 11.1287C16.658 10.8864 16.7312 10.6501 16.8667 10.4496C17.0022 10.2492 17.1938 10.0936 17.4174 10.0026C17.6409 9.91158 17.8863 9.88921 18.1225 9.93833C18.3587 9.98745 18.5751 10.1058 18.7443 10.2785C18.9134 10.4512 19.0278 10.6704 19.073 10.9084C19.1181 11.1464 19.0919 11.3925 18.9977 11.6156C18.9035 11.8387 18.7456 12.0286 18.5439 12.1615C18.3422 12.2944 18.1058 12.3642 17.8646 12.362C17.5424 12.3569 17.235 12.2247 17.009 11.994C16.7829 11.7632 16.6562 11.4524 16.6563 11.1287ZM18.3346 11.1415C18.3376 11.0791 18.3281 11.0167 18.3066 10.958C18.2851 10.8994 18.252 10.8457 18.2094 10.8001C18.1668 10.7546 18.1155 10.7181 18.0585 10.6929C18.0016 10.6678 17.9402 10.6544 17.8779 10.6535C17.8157 10.6527 17.754 10.6645 17.6964 10.6882C17.6388 10.7119 17.5866 10.747 17.5428 10.7914C17.499 10.8358 17.4646 10.8886 17.4415 10.9467C17.4185 11.0047 17.4074 11.0669 17.4088 11.1294C17.4058 11.1918 17.4153 11.2542 17.4368 11.3128C17.4583 11.3715 17.4913 11.4252 17.534 11.4707C17.5766 11.5163 17.6279 11.5527 17.6848 11.5779C17.7418 11.6031 17.8032 11.6165 17.8654 11.6173C17.9276 11.6181 17.9894 11.6063 18.047 11.5827C18.1046 11.559 18.1568 11.5239 18.2006 11.4795C18.2444 11.4351 18.2788 11.3823 18.3018 11.3242C18.3248 11.2661 18.336 11.204 18.3346 11.1415Z" fill="black"/>
<path d="M12.4805 13.6272C12.4789 13.6765 12.4677 13.7251 12.4475 13.7701C12.4273 13.815 12.3984 13.8556 12.3626 13.8893C12.3268 13.9231 12.2847 13.9495 12.2388 13.9669C12.1928 13.9844 12.1439 13.9926 12.0948 13.991C12.0457 13.9895 11.9974 13.9782 11.9526 13.9579C11.9078 13.9376 11.8674 13.9086 11.8338 13.8727C11.8002 13.8367 11.7739 13.7944 11.7566 13.7482C11.7392 13.7021 11.7311 13.6529 11.7326 13.6036C11.7357 13.504 11.7781 13.4097 11.8504 13.3415C11.9228 13.2732 12.0191 13.2367 12.1183 13.2398C12.2175 13.2429 12.3113 13.2855 12.3792 13.3582C12.4472 13.4308 12.4836 13.5276 12.4805 13.6272Z" fill="black"/>
<path d="M14.5605 13.2381C14.6571 13.2383 14.75 13.2749 14.8209 13.3408C14.8918 13.4066 14.9354 13.4968 14.9432 13.5935C14.9489 13.693 14.915 13.7907 14.849 13.8651C14.7829 13.9396 14.6902 13.9846 14.5911 13.9903C14.492 13.996 14.3947 13.962 14.3206 13.8957C14.2465 13.8293 14.2017 13.7362 14.196 13.6366C14.1927 13.5355 14.229 13.4371 14.2972 13.3625C14.3654 13.288 14.4599 13.2433 14.5605 13.2381Z" fill="black"/>
<path d="M10.0237 11.1327C10.0237 11.3751 9.95209 11.612 9.81796 11.8135C9.68382 12.015 9.49318 12.1719 9.27018 12.2645C9.04718 12.3571 8.80185 12.3811 8.56525 12.3335C8.32865 12.2859 8.11143 12.1689 7.9411 11.9972C7.77076 11.8255 7.65497 11.607 7.60839 11.3692C7.5618 11.1313 7.58652 10.885 7.67941 10.6613C7.7723 10.4376 7.92919 10.2466 8.1302 10.1126C8.33121 9.97849 8.56731 9.90735 8.8086 9.90815C9.13042 9.91185 9.43796 10.0422 9.66515 10.2712C9.89235 10.5001 10.0211 10.8095 10.0237 11.1327ZM9.26846 11.1246C9.26579 11.033 9.23615 10.9441 9.18329 10.8693C9.13042 10.7945 9.0567 10.7371 8.9714 10.7043C8.8861 10.6715 8.79306 10.6648 8.70398 10.6851C8.61491 10.7053 8.5338 10.7516 8.47088 10.8181C8.40795 10.8846 8.36603 10.9683 8.3504 11.0587C8.33477 11.1491 8.34612 11.2421 8.38303 11.326C8.41994 11.4099 8.48074 11.481 8.55779 11.5302C8.63484 11.5795 8.72468 11.6047 8.81599 11.6027C8.93768 11.5963 9.05224 11.5431 9.13588 11.4541C9.21951 11.365 9.26579 11.2471 9.2651 11.1246H9.26846Z" fill="black"/>
<path d="M18.3365 11.1415C18.3352 11.2335 18.3067 11.3231 18.2547 11.3989C18.2026 11.4746 18.1294 11.5332 18.0442 11.5671C17.9591 11.6011 17.8658 11.6089 17.7762 11.5896C17.6866 11.5703 17.6047 11.5247 17.5409 11.4586C17.4771 11.3926 17.4342 11.309 17.4177 11.2184C17.4012 11.1279 17.4118 11.0344 17.4482 10.9499C17.4846 10.8655 17.5451 10.7937 17.6221 10.7438C17.6991 10.6938 17.7891 10.668 17.8807 10.6694C18.0029 10.6731 18.1188 10.7245 18.2039 10.8126C18.289 10.9007 18.3366 11.0187 18.3365 11.1415Z" fill="black"/>
<path d="M9.26469 11.1247C9.26517 11.2476 9.21837 11.3659 9.13406 11.455C9.04976 11.5441 8.93445 11.597 8.81222 11.6028C8.71998 11.6054 8.62904 11.5805 8.55092 11.5312C8.4728 11.4818 8.41103 11.4103 8.37343 11.3257C8.33584 11.241 8.32411 11.1471 8.33974 11.0557C8.35537 10.9644 8.39766 10.8797 8.46124 10.8125C8.52482 10.7454 8.60682 10.6987 8.69685 10.6784C8.78689 10.6581 8.8809 10.6651 8.96697 10.6985C9.05303 10.7319 9.12727 10.7903 9.18028 10.8662C9.23328 10.942 9.26266 11.032 9.26469 11.1247Z" fill="black"/>
</g>
<path d="M44.7988 10.0574C44.7988 12.0218 43.6381 12.9147 42.321 13.3611V13.4058C43.9952 13.696 45.4239 14.9683 45.4239 17.3569C45.4239 20.3034 43.3256 21.9999 40.0218 21.9999H33.1465V6.03933H39.5754C42.8345 6.03933 44.7988 7.57959 44.7988 10.0574ZM35.1555 12.7138H39.8879C42.1648 12.7138 42.7898 11.7316 42.7898 10.2806C42.7898 8.82965 41.9416 7.82514 40.1111 7.82514H35.1555V12.7138ZM35.1555 14.4996V20.2141H40.2227C42.7898 20.2141 43.4148 18.8525 43.4148 17.3569C43.4148 15.638 42.3434 14.4996 40.6692 14.4996H35.1555ZM52.825 10.3029C54.901 10.3029 56.6422 11.4414 56.6422 14.0531V21.9999H54.8564V14.4996C54.8564 13.0263 54.1644 11.8655 52.3786 11.8655C50.3695 11.8655 49.0302 13.1379 49.0302 14.9014V21.9999H47.2444V6.03933H49.0302V11.9771H49.0748C49.6775 11.1735 50.883 10.3029 52.825 10.3029ZM66.0025 13.5174C66.0025 12.6245 65.5114 11.8655 63.6809 11.8655C61.5156 11.8655 60.8013 12.4905 60.6897 14.1424H58.9039C59.0155 11.9548 60.3772 10.3029 63.6809 10.3029C65.8462 10.3029 67.7883 11.1512 67.7883 13.8969V19.4328C67.7883 20.3257 67.9445 20.8168 69.083 20.6829V21.933C68.6142 22.0892 68.3686 22.1116 68.0338 22.1116C66.9623 22.1116 66.315 21.8214 66.0025 20.5713H65.9578C65.2435 21.6428 63.9711 22.3125 62.096 22.3125C59.7968 22.3125 58.3458 20.9954 58.3458 19.0757C58.3458 16.4863 60.2656 15.8166 63.2121 15.2585C65.1319 14.9014 66.0025 14.6558 66.0025 13.5174ZM62.2746 20.7499C64.3952 20.7499 66.0025 19.79 66.0025 17.6024V15.705C65.6676 16.0398 64.5738 16.3523 63.3684 16.5979C61.1585 17.0667 60.1316 17.6247 60.1316 18.9864C60.1316 20.1025 60.8013 20.7499 62.2746 20.7499ZM70.4171 6.03933H72.2029V15.5041L77.4264 10.6155H79.6586L75.2164 14.8344L80.1274 21.9999H78.0067L73.9664 15.8836L72.2029 17.5131V21.9999H70.4171V6.03933ZM86.0762 12.178H83.8439V19.031C83.8439 20.3257 84.5582 20.549 86.0762 20.4374V21.9999C85.6743 22.0892 85.2056 22.1339 84.7368 22.1339C83.2189 22.1339 82.0581 21.5312 82.0581 19.2096V12.178H80.3839V10.6155H82.0581V6.82062H83.8439V10.6155H86.0762V12.178ZM89.0599 8.40552C88.5688 8.40552 87.9437 8.02604 87.9437 7.33404C87.9437 6.64204 88.5688 6.26256 89.0599 6.26256C89.5733 6.26256 90.176 6.64204 90.176 7.33404C90.176 8.02604 89.5733 8.40552 89.0599 8.40552ZM88.167 10.6155H89.9528V21.9999H88.167V10.6155Z" fill="black"/>
<defs>
<clipPath id="clip0_642_2595">
<rect width="25.7292" height="25.7292" fill="white" transform="translate(0.473145 0.635376)"/>
</clipPath>
</defs>
</svg>
